<svg width="25" height="24" viewBox="0 0 25 24" fill="none" xmlns="http://www.w3.org/2000/svg">
<g clip-path="url(#clip0_5264_16137)">
<path d="M5.89647 0.25H19.1035C21.9458 0.25 24.25 2.55415 24.25 5.39647V18.6035C24.25 21.4458 21.9458 23.75 19.1035 23.75H5.89647C3.05415 23.75 0.75 21.4458 0.75 18.6035V5.39647C0.75 2.55415 3.05415 0.25 5.89647 0.25Z" fill="#200C05"/>
<path d="M8.28111 17.3067L8.28331 17.3074L7.47984 18.6991C7.18656 19.207 6.53696 19.3811 6.02899 19.0878C5.52104 18.7946 5.34696 18.145 5.64024 17.637L6.23214 16.6118L6.28894 16.5134C6.39039 16.3676 6.64071 16.116 7.14146 16.1633C7.14146 16.1633 8.31984 16.2911 8.40511 16.9036C8.40514 16.9036 8.41676 17.1051 8.28111 17.3067ZM19.6771 13.7523H17.1716C17.0009 13.7408 16.9264 13.6799 16.8972 13.6445L16.8953 13.6412L14.2132 8.99576L14.2098 8.99808L14.0489 8.76743C13.7853 8.36433 13.3667 9.39538 13.3667 9.39538C12.8669 10.5443 13.4376 11.8505 13.6366 12.2453L17.3619 18.6976C17.6551 19.2056 18.3047 19.3797 18.8127 19.0864C19.3206 18.7931 19.4947 18.1435 19.2014 17.6355L18.2699 16.0221C18.2519 15.983 18.2204 15.8768 18.4115 15.8764H19.6771C20.2636 15.8764 20.7392 15.4009 20.7392 14.8143C20.7392 14.2278 20.2636 13.7523 19.6771 13.7523ZM14.8106 15.1961C14.8106 15.1961 14.9443 15.8764 14.4268 15.8764H13.9093L5.16461 15.8764C4.57804 15.8764 4.10254 15.4009 4.10254 14.8143C4.10254 14.2278 4.57804 13.7523 5.16461 13.7523H7.54581C7.93026 13.73 8.02141 13.5081 8.02141 13.5081L8.02351 13.5091L11.1318 8.12541L11.1309 8.12521C11.1875 8.02121 11.1403 7.92296 11.1321 7.90738L10.1056 6.12946C9.81234 5.62146 9.98639 4.97188 10.4944 4.67861C11.0024 4.38531 11.6519 4.55938 11.9452 5.06736L12.4213 5.89196L12.8965 5.06883C13.1898 4.56083 13.8394 4.38678 14.3473 4.68008C14.8553 4.97338 15.0294 5.62296 14.7361 6.13091L10.4108 13.6225C10.3919 13.6681 10.3861 13.7396 10.5268 13.7523H13.1122L13.1128 13.7774C13.1128 13.7774 14.6071 13.8007 14.8106 15.1961Z" fill="white"/>
</g>
<defs>
<clipPath id="clip0_5264_16137">
<rect x="0.5" width="24" height="24" rx="12" fill="white"/>
</clipPath>
</defs>
</svg>
