<svg width="20" height="21" viewBox="0 0 20 21" fill="none" xmlns="http://www.w3.org/2000/svg">
<g clip-path="url(#clip0_7140_4441)">
<path fill-rule="evenodd" clip-rule="evenodd" d="M13.3332 2.67969H14.5832C15.2732 2.67969 15.8332 2.11969 15.8332 1.42969C15.8332 0.739688 15.2732 0.179688 14.5832 0.179688H5.41649C4.72649 0.179688 4.16649 0.739688 4.16649 1.42969C4.16649 2.11969 4.72649 2.67969 5.41649 2.67969H6.66649V8.55135L1.93815 15.6464C1.33982 16.543 1.28482 17.6897 1.79315 18.6397C2.30149 19.5897 3.28649 20.1797 4.36482 20.1797H15.6365C16.7148 20.1797 17.6998 19.5897 18.2082 18.6397C18.7165 17.6897 18.6598 16.5414 18.0632 15.6464L18.0615 15.6447L13.3332 8.54969V2.67969Z" fill="#CEFF78"/>
</g>
<defs>
<clipPath id="clip0_7140_4441">
<rect width="20" height="20" fill="white" transform="translate(0 0.179688)"/>
</clipPath>
</defs>
</svg>
