<svg width="25" height="26" viewBox="0 0 25 26" fill="none" xmlns="http://www.w3.org/2000/svg">
<path d="M12.5 25C19.1274 25 24.5 19.6274 24.5 13C24.5 6.37258 19.1274 1 12.5 1C5.87258 1 0.5 6.37258 0.5 13C0.5 19.6274 5.87258 25 12.5 25Z" fill="#200C05" stroke="#200C05"/>
<path d="M17.6936 10.192H15.644C15.6992 9.87041 15.8984 9.69041 16.3016 9.48641L16.6784 9.29441C17.3528 8.94881 17.7128 8.55761 17.7128 7.91921C17.7128 7.51841 17.5568 7.20161 17.2472 6.97361C16.9376 6.74561 16.5728 6.63281 16.1456 6.63281C15.8151 6.62892 15.4907 6.7215 15.212 6.89921C14.9312 7.07201 14.7224 7.29521 14.5928 7.57361L15.1856 8.16881C15.416 7.70321 15.7496 7.47521 16.1888 7.47521C16.5608 7.47521 16.7888 7.66721 16.7888 7.93361C16.7888 8.15681 16.6784 8.34161 16.2512 8.55761L16.0088 8.67521C15.4832 8.94161 15.1184 9.24641 14.9072 9.59201C14.696 9.93761 14.5928 10.372 14.5928 10.8976V11.0416H17.6936V10.192ZM17.42 12.0208H14.0264L12.3296 14.9584H15.7232L17.42 17.8984L19.1168 14.9584L17.42 12.0208Z" fill="white" stroke="#200C05"/>
<path d="M12.6224 16.9192C10.4624 16.9192 8.70322 15.16 8.70322 13C8.70322 10.84 10.4624 9.08079 12.6224 9.08079L13.964 6.27519C13.5222 6.18734 13.0729 6.14312 12.6224 6.14319C8.83523 6.14319 5.76562 9.21279 5.76562 13C5.76562 16.7872 8.83523 19.8568 12.6224 19.8568C14.0738 19.8595 15.488 19.3987 16.6592 18.5416L15.176 15.9688C14.4664 16.5817 13.5601 16.9191 12.6224 16.9192Z" fill="white" stroke="#200C05"/>
</svg>
