<svg width="24" height="25" viewBox="0 0 24 25" fill="none" xmlns="http://www.w3.org/2000/svg">
<g clip-path="url(#clip0_5131_14491)">
<path fill-rule="evenodd" clip-rule="evenodd" d="M21.0678 0.478516C22.6861 0.478516 24 1.79242 24 3.41073V21.5463C24 23.1646 22.6861 24.4785 21.0678 24.4785H16.0771V15.4356H19.199L19.793 11.5628H16.0771V9.04947C16.0771 7.98995 16.5961 6.95716 18.2605 6.95716H19.95V3.65997C19.95 3.65997 18.4167 3.39831 16.9508 3.39831C13.8905 3.39831 11.8902 5.25311 11.8902 8.611V11.5628H8.48836V15.4356H11.8902V24.4785H2.93222C1.31391 24.4785 0 23.1646 0 21.5463V3.41073C0 1.79242 1.31386 0.478516 2.93222 0.478516L21.0678 0.478516Z" fill="#200C05"/>
</g>
<defs>
<clipPath id="clip0_5131_14491">
<rect width="24" height="24" fill="white" transform="translate(0 0.478516)"/>
</clipPath>
</defs>
</svg>
