<svg width="24" height="25" viewBox="0 0 24 25" fill="none" xmlns="http://www.w3.org/2000/svg">
<path d="M5 21.1667C4.448 21.1667 4 20.7187 4 20.1667V15.5C4 14.948 4.448 14.5 5 14.5C5.552 14.5 6 14.948 6 15.5V20.1667C6 20.7187 5.552 21.1667 5 21.1667Z" fill="#200C05"/>
<path d="M19 21.1667C18.448 21.1667 18 20.7187 18 20.1667V11.5C18 10.948 18.448 10.5 19 10.5C19.552 10.5 20 10.948 20 11.5V20.1667C20 20.7187 19.552 21.1667 19 21.1667Z" fill="#200C05"/>
<path d="M9.66669 21.1667C9.11469 21.1667 8.66669 20.7187 8.66669 20.1667V11.5C8.66669 10.948 9.11469 10.5 9.66669 10.5C10.2187 10.5 10.6667 10.948 10.6667 11.5V20.1667C10.6667 20.7187 10.2187 21.1667 9.66669 21.1667Z" fill="#200C05"/>
<path d="M14.3333 21.1667C13.7813 21.1667 13.3333 20.7187 13.3333 20.1667V15.5C13.3333 14.948 13.7813 14.5 14.3333 14.5C14.8853 14.5 15.3333 14.948 15.3333 15.5V20.1667C15.3333 20.7187 14.8853 21.1667 14.3333 21.1667Z" fill="#200C05"/>
<path d="M3.66666 11.8333C3.41066 11.8333 3.15466 11.736 2.95999 11.54C2.56933 11.1493 2.56933 10.516 2.95999 10.1253L7.82133 5.264C8.47066 4.61467 9.52799 4.61467 10.1787 5.264L14.3333 9.41867L19.6267 4.12534C20.0173 3.73467 20.6507 3.73467 21.0413 4.12534C21.432 4.516 21.432 5.14934 21.0413 5.54L15.5133 11.068C14.864 11.7173 13.8067 11.7173 13.156 11.068L9.00133 6.91334L4.37466 11.54C4.17999 11.7347 3.92266 11.8333 3.66666 11.8333Z" fill="#200C05"/>
</svg>
