<svg width="24" height="25" viewBox="0 0 24 25" fill="none" xmlns="http://www.w3.org/2000/svg">
<g clip-path="url(#clip0_5131_14489)">
<path fill-rule="evenodd" clip-rule="evenodd" d="M21.0678 0.478516C22.6861 0.478516 24 1.79242 24 3.41073V21.5463C24 23.1646 22.6861 24.4785 21.0678 24.4785H2.93222C1.31391 24.4785 0 23.1646 0 21.5463V3.41073C0 1.79242 1.31386 0.478516 2.93222 0.478516L21.0678 0.478516ZM12 4.27539C9.77217 4.27539 9.4928 4.28481 8.61788 4.32475C7.74473 4.36459 7.14844 4.50325 6.62663 4.70608C6.08719 4.9157 5.62973 5.1962 5.17369 5.6522C4.71764 6.10825 4.43714 6.56575 4.22752 7.10514C4.02473 7.62695 3.88608 8.22325 3.84619 9.09639C3.8063 9.97131 3.79688 10.2507 3.79688 12.4785C3.79688 14.7063 3.8063 14.9857 3.84619 15.8606C3.88608 16.7338 4.02473 17.3301 4.22752 17.8519C4.43714 18.3913 4.71764 18.8488 5.17369 19.3048C5.62973 19.7609 6.08719 20.0414 6.62663 20.251C7.14844 20.4538 7.74473 20.5924 8.61788 20.6323C9.4928 20.6722 9.77217 20.6816 12 20.6816C14.2278 20.6816 14.5072 20.6722 15.3821 20.6323C16.2553 20.5924 16.8516 20.4538 17.3734 20.251C17.9128 20.0414 18.3703 19.7609 18.8263 19.3048C19.2824 18.8488 19.5629 18.3913 19.7725 17.8519C19.9753 17.3301 20.1139 16.7338 20.1538 15.8606C20.1937 14.9857 20.2031 14.7063 20.2031 12.4785C20.2031 10.2507 20.1937 9.97131 20.1538 9.09639C20.1139 8.22325 19.9753 7.62695 19.7725 7.10514C19.5629 6.56575 19.2824 6.10825 18.8263 5.6522C18.3703 5.1962 17.9128 4.9157 17.3734 4.70608C16.8516 4.50325 16.2553 4.36459 15.3821 4.32475C14.5072 4.28481 14.2278 4.27539 12 4.27539ZM12 5.75345C14.1903 5.75345 14.4498 5.7618 15.3148 5.80127C16.1145 5.83778 16.5489 5.97142 16.838 6.08369C17.2209 6.23252 17.4941 6.41031 17.7812 6.69733C18.0683 6.98439 18.246 7.25767 18.3948 7.64055C18.5071 7.92962 18.6408 8.36397 18.6772 9.16375C18.7167 10.0287 18.7251 10.2882 18.7251 12.4785C18.7251 14.6688 18.7167 14.9283 18.6772 15.7933C18.6408 16.5931 18.5071 17.0274 18.3948 17.3165C18.246 17.6994 18.0683 17.9726 17.7812 18.2597C17.4941 18.5468 17.2209 18.7245 16.838 18.8733C16.5489 18.9857 16.1145 19.1193 15.3148 19.1558C14.4499 19.1952 14.1905 19.2036 12 19.2036C9.80953 19.2036 9.55013 19.1952 8.68523 19.1558C7.88545 19.1193 7.45111 18.9857 7.16203 18.8733C6.77911 18.7245 6.50588 18.5468 6.21881 18.2597C5.93175 17.9726 5.75395 17.6994 5.60517 17.3165C5.49286 17.0274 5.35922 16.5931 5.3227 15.7933C5.28323 14.9283 5.27489 14.6688 5.27489 12.4785C5.27489 10.2882 5.28323 10.0287 5.3227 9.16375C5.35922 8.36397 5.49286 7.92962 5.60517 7.64055C5.75395 7.25767 5.93175 6.98439 6.21881 6.69733C6.50588 6.41031 6.77911 6.23252 7.16203 6.08369C7.45111 5.97142 7.88545 5.83778 8.68523 5.80127C9.55022 5.7618 9.80967 5.75345 12 5.75345ZM12 8.26609C9.67355 8.26609 7.78758 10.1521 7.78758 12.4785C7.78758 14.805 9.67355 16.6909 12 16.6909C14.3265 16.6909 16.2124 14.805 16.2124 12.4785C16.2124 10.1521 14.3265 8.26609 12 8.26609ZM12 15.2129C10.4898 15.2129 9.26564 13.9887 9.26564 12.4785C9.26564 10.9683 10.4898 9.74416 12 9.74416C13.5102 9.74416 14.7344 10.9683 14.7344 12.4785C14.7344 13.9887 13.5102 15.2129 12 15.2129ZM17.3632 8.09969C17.3632 8.64334 16.9225 9.08402 16.3788 9.08402C15.8352 9.08402 15.3945 8.64334 15.3945 8.09969C15.3945 7.55603 15.8352 7.11531 16.3788 7.11531C16.9225 7.11531 17.3632 7.55603 17.3632 8.09969Z" fill="#200C05"/>
</g>
<defs>
<clipPath id="clip0_5131_14489">
<rect width="24" height="24" fill="white" transform="translate(0 0.478516)"/>
</clipPath>
</defs>
</svg>
