<svg width="24" height="25" viewBox="0 0 24 25" fill="none" xmlns="http://www.w3.org/2000/svg">
<g clip-path="url(#clip0_5131_14493)">
<path fill-rule="evenodd" clip-rule="evenodd" d="M21.0678 0.478516C22.6861 0.478516 24 1.79242 24 3.41073V21.5463C24 23.1646 22.6861 24.4785 21.0678 24.4785H2.93222C1.31391 24.4785 0 23.1646 0 21.5463V3.41073C0 1.79242 1.31386 0.478516 2.93222 0.478516L21.0678 0.478516ZM7.52161 20.3197V9.73919H4.00411V20.3197H7.52161ZM20.2031 20.3197V14.2522C20.2031 11.0022 18.4679 9.49038 16.154 9.49038C14.2882 9.49038 13.4524 10.5165 12.9845 11.2372V9.73919H9.46786C9.5145 10.732 9.46786 20.3197 9.46786 20.3197H12.9844V14.4108C12.9844 14.0945 13.0072 13.7784 13.1004 13.5523C13.3542 12.9206 13.9332 12.2663 14.9048 12.2663C16.1768 12.2663 16.6864 13.237 16.6864 14.6587V20.3197H20.2031ZM5.78662 4.63736C4.58316 4.63736 3.79688 5.42856 3.79688 6.46558C3.79688 7.4808 4.55925 8.2938 5.74008 8.2938H5.76277C6.98925 8.2938 7.7527 7.4808 7.7527 6.46558C7.72997 5.43002 6.99141 4.63961 5.78662 4.63736Z" fill="#200C05"/>
</g>
<defs>
<clipPath id="clip0_5131_14493">
<rect width="24" height="24" fill="white" transform="translate(0 0.478516)"/>
</clipPath>
</defs>
</svg>
