<svg width="20" height="20" viewBox="0 0 20 20" fill="none" xmlns="http://www.w3.org/2000/svg">
<path d="M13.6111 1.11111H6.38887C4.70331 1.11111 3.33331 2.48111 3.33331 4.16667V15.8333C3.33331 17.5189 4.70331 18.8889 6.38887 18.8889H13.6111C15.2966 18.8889 16.6666 17.5189 16.6666 15.8333V4.16667C16.6666 2.48111 15.2966 1.11111 13.6111 1.11111ZM6.94442 16.1111C6.48442 16.1111 6.11109 15.7378 6.11109 15.2778C6.11109 14.8178 6.48442 14.4444 6.94442 14.4444C7.40442 14.4444 7.77776 14.8178 7.77776 15.2778C7.77776 15.7378 7.40442 16.1111 6.94442 16.1111ZM6.94442 13.0556C6.48442 13.0556 6.11109 12.6822 6.11109 12.2222C6.11109 11.7622 6.48442 11.3889 6.94442 11.3889C7.40442 11.3889 7.77776 11.7622 7.77776 12.2222C7.77776 12.6822 7.40442 13.0556 6.94442 13.0556ZM6.94442 10C6.48442 10 6.11109 9.62667 6.11109 9.16667C6.11109 8.70667 6.48442 8.33333 6.94442 8.33333C7.40442 8.33333 7.77776 8.70667 7.77776 9.16667C7.77776 9.62667 7.40442 10 6.94442 10ZM9.99998 16.1111C9.53998 16.1111 9.16665 15.7378 9.16665 15.2778C9.16665 14.8178 9.53998 14.4444 9.99998 14.4444C10.46 14.4444 10.8333 14.8178 10.8333 15.2778C10.8333 15.7378 10.46 16.1111 9.99998 16.1111ZM9.99998 13.0556C9.53998 13.0556 9.16665 12.6822 9.16665 12.2222C9.16665 11.7622 9.53998 11.3889 9.99998 11.3889C10.46 11.3889 10.8333 11.7622 10.8333 12.2222C10.8333 12.6822 10.46 13.0556 9.99998 13.0556ZM9.99998 10C9.53998 10 9.16665 9.62667 9.16665 9.16667C9.16665 8.70667 9.53998 8.33333 9.99998 8.33333C10.46 8.33333 10.8333 8.70667 10.8333 9.16667C10.8333 9.62667 10.46 10 9.99998 10ZM13.8889 15.2778C13.8889 15.7378 13.5155 16.1111 13.0555 16.1111C12.5955 16.1111 12.2222 15.7378 12.2222 15.2778V12.2222C12.2222 11.7622 12.5955 11.3889 13.0555 11.3889C13.5155 11.3889 13.8889 11.7622 13.8889 12.2222V15.2778ZM13.0555 10C12.5955 10 12.2222 9.62667 12.2222 9.16667C12.2222 8.70667 12.5955 8.33333 13.0555 8.33333C13.5155 8.33333 13.8889 8.70667 13.8889 9.16667C13.8889 9.62667 13.5155 10 13.0555 10ZM13.8889 5.83333C13.8889 6.29333 13.5155 6.66667 13.0555 6.66667H6.94442C6.48442 6.66667 6.11109 6.29333 6.11109 5.83333V4.72222C6.11109 4.26222 6.48442 3.88889 6.94442 3.88889H13.0555C13.5155 3.88889 13.8889 4.26222 13.8889 4.72222V5.83333Z" fill="#BAF2FF"/>
</svg>
