<svg width="26" height="25" viewBox="0 0 26 25" fill="none" xmlns="http://www.w3.org/2000/svg">
<path fill-rule="evenodd" clip-rule="evenodd" d="M3.88672 0.478516C2.22986 0.478516 0.886719 1.82166 0.886719 3.47852V21.7051C0.886719 23.3619 2.22986 24.7051 3.88672 24.7051H22.1133C23.7701 24.7051 25.1133 23.3619 25.1133 21.7051V3.47852C25.1133 1.82166 23.7701 0.478516 22.1133 0.478516H3.88672ZM20.3749 4.5293L14.501 11.357L20.889 20.6543H16.1904L11.8888 14.3935L6.50304 20.6543H5.11133L11.2711 13.4942L5.11133 4.5293H9.80928L13.8827 10.4577L18.9832 4.5293H20.3749ZM11.9707 12.6805L12.5946 13.5729L12.5952 13.5736L16.846 19.6539H18.9838L13.7742 12.2023L13.1503 11.3099L9.14258 5.57742H7.00478L11.9707 12.6805Z" fill="#200C05"/>
</svg>
