<svg width="24" height="25" viewBox="0 0 24 25" fill="none" xmlns="http://www.w3.org/2000/svg">
<g clip-path="url(#clip0_5131_14487)">
<path fill-rule="evenodd" clip-rule="evenodd" d="M21.0678 0.478516C22.6861 0.478516 24 1.79242 24 3.41073V21.5463C24 23.1646 22.6861 24.4785 21.0678 24.4785H2.93222C1.31391 24.4785 0 23.1646 0 21.5463V3.41073C0 1.79242 1.31386 0.478516 2.93222 0.478516L21.0678 0.478516ZM20.085 8.71117C19.8909 7.98513 19.3192 7.41334 18.5931 7.21933C17.277 6.86664 12 6.86664 12 6.86664C12 6.86664 6.72305 6.86664 5.40689 7.21933C4.68098 7.41334 4.10911 7.98513 3.91505 8.71117C3.5625 10.0272 3.5625 12.773 3.5625 12.773C3.5625 12.773 3.5625 15.5187 3.91505 16.8346C4.10911 17.5607 4.68098 18.1326 5.40689 18.3266C6.72305 18.6791 12 18.6791 12 18.6791C12 18.6791 17.277 18.6791 18.5931 18.3266C19.3192 18.1326 19.8909 17.5607 20.085 16.8346C20.4375 15.5187 20.4375 12.773 20.4375 12.773C20.4375 12.773 20.4375 10.0272 20.085 8.71117ZM10.3124 15.3043V10.2417L14.6966 12.773L10.3124 15.3043Z" fill="#200C05"/>
</g>
<defs>
<clipPath id="clip0_5131_14487">
<rect width="24" height="24" fill="white" transform="translate(0 0.478516)"/>
</clipPath>
</defs>
</svg>
